<svg xmlns="http://www.w3.org/2000/svg" xmlns:xlink="http://www.w3.org/1999/xlink" width="142.5" viewBox="0 0 142.5 75" height="75" version="1.0"><defs><g id="e"><path d="M 5.078125 3.78125 C 4.179688 3.78125 3.351562 3.539062 2.59375 3.0625 C 1.84375 2.582031 1.46875 1.992188 1.46875 1.296875 C 1.46875 0.804688 1.660156 0 2.046875 -1.125 C 4.265625 -7.957031 6.054688 -13.28125 7.421875 -17.09375 C 8.785156 -20.914062 10.453125 -25.015625 12.421875 -29.390625 C 10.941406 -29.035156 9.421875 -28.457031 7.859375 -27.65625 C 7.160156 -27.300781 6.738281 -27.125 6.59375 -27.125 C 6.332031 -27.125 5.992188 -27.332031 5.578125 -27.75 C 5.160156 -28.175781 4.953125 -28.535156 4.953125 -28.828125 C 8.828125 -30.441406 12.226562 -31.25 15.15625 -31.25 C 17.0625 -31.25 18.945312 -30.914062 20.8125 -30.25 C 22.675781 -29.582031 24.21875 -28.601562 25.4375 -27.3125 C 26.65625 -26.03125 27.265625 -24.507812 27.265625 -22.75 C 27.265625 -19.96875 26.148438 -17.820312 23.921875 -16.3125 C 21.691406 -14.8125 19.25 -13.804688 16.59375 -13.296875 C 13.945312 -12.796875 11.710938 -12.546875 9.890625 -12.546875 L 9.640625 -12.546875 L 7.203125 -3.8125 C 6.597656 -1.5 5.890625 1.03125 5.078125 3.78125 Z M 10.03125 -13.890625 C 12.34375 -14.035156 14.53125 -14.484375 16.59375 -15.234375 C 18.664062 -15.984375 20.359375 -17.050781 21.671875 -18.4375 C 22.992188 -19.832031 23.65625 -21.5 23.65625 -23.4375 C 23.65625 -25.4375 22.890625 -26.96875 21.359375 -28.03125 C 19.828125 -29.101562 17.957031 -29.671875 15.75 -29.734375 C 14.019531 -26.378906 12.113281 -21.097656 10.03125 -13.890625 Z M 10.03125 -13.890625"/></g><g id="f"><path d="M 25.515625 4.296875 C 24.453125 4.296875 23.535156 3.820312 22.765625 2.875 C 21.992188 1.9375 21.609375 0.789062 21.609375 -0.5625 L 21.703125 -2.828125 C 19.296875 1.597656 16.210938 3.8125 12.453125 3.8125 C 10.515625 3.8125 9.003906 3.234375 7.921875 2.078125 C 6.835938 0.921875 6.296875 -0.695312 6.296875 -2.78125 C 6.296875 -4.164062 6.5 -5.65625 6.90625 -7.25 C 7.3125 -8.84375 7.945312 -10.96875 8.8125 -13.625 C 9.675781 -16.320312 10.335938 -18.582031 10.796875 -20.40625 C 11.265625 -22.226562 11.5 -23.929688 11.5 -25.515625 C 11.5 -28.117188 10.71875 -29.421875 9.15625 -29.421875 C 8.195312 -29.421875 7.382812 -29.03125 6.71875 -28.25 C 6.0625 -27.46875 5.566406 -26.539062 5.234375 -25.46875 C 4.898438 -24.40625 4.734375 -23.484375 4.734375 -22.703125 C 4.734375 -21.804688 4.921875 -20.878906 5.296875 -19.921875 C 3.960938 -19.921875 2.984375 -20.222656 2.359375 -20.828125 C 1.742188 -21.441406 1.4375 -22.253906 1.4375 -23.265625 C 1.4375 -24.453125 1.828125 -25.664062 2.609375 -26.90625 C 3.390625 -28.15625 4.453125 -29.179688 5.796875 -29.984375 C 7.140625 -30.796875 8.609375 -31.203125 10.203125 -31.203125 C 11.910156 -31.203125 13.175781 -30.707031 14 -29.71875 C 14.820312 -28.738281 15.234375 -27.367188 15.234375 -25.609375 C 15.234375 -24.191406 15.007812 -22.5625 14.5625 -20.71875 C 14.113281 -18.882812 13.46875 -16.640625 12.625 -13.984375 C 11.757812 -11.203125 11.128906 -9.019531 10.734375 -7.4375 C 10.347656 -5.863281 10.15625 -4.46875 10.15625 -3.25 C 10.15625 -1.800781 10.441406 -0.65625 11.015625 0.1875 C 11.597656 1.039062 12.515625 1.46875 13.765625 1.46875 C 15.234375 1.46875 16.578125 0.878906 17.796875 -0.296875 C 19.015625 -1.484375 20.023438 -2.945312 20.828125 -4.6875 C 21.640625 -6.425781 22.25 -8.148438 22.65625 -9.859375 C 24.25 -16.367188 25.648438 -21.550781 26.859375 -25.40625 C 28.078125 -29.269531 29.253906 -31.203125 30.390625 -31.203125 C 30.671875 -31.203125 31.066406 -31.050781 31.578125 -30.75 C 32.085938 -30.445312 32.613281 -30.035156 33.15625 -29.515625 C 32.613281 -29.109375 31.664062 -27.15625 30.3125 -23.65625 C 28.96875 -20.15625 27.765625 -16.320312 26.703125 -12.15625 C 25.648438 -7.988281 25.125 -4.570312 25.125 -1.90625 C 25.125 -0.695312 25.253906 0.21875 25.515625 0.84375 C 25.773438 1.46875 26.195312 1.898438 26.78125 2.140625 C 27.363281 2.390625 28.175781 2.515625 29.21875 2.515625 C 28.894531 3.035156 28.363281 3.460938 27.625 3.796875 C 26.882812 4.128906 26.179688 4.296875 25.515625 4.296875 Z M 25.515625 4.296875"/></g><g id="g"><path d="M 3.421875 0.609375 C 5.972656 -7.523438 8.710938 -16.640625 11.640625 -26.734375 C 11.835938 -27.546875 11.9375 -28.113281 11.9375 -28.4375 C 11.9375 -28.664062 11.898438 -28.820312 11.828125 -28.90625 C 11.753906 -28.988281 11.601562 -29.03125 11.375 -29.03125 C 10.59375 -29.03125 9.835938 -28.632812 9.109375 -27.84375 C 8.390625 -27.050781 7.804688 -26.097656 7.359375 -24.984375 C 6.910156 -23.867188 6.6875 -22.875 6.6875 -22 C 6.6875 -21.3125 6.832031 -20.632812 7.125 -19.96875 C 5.90625 -19.96875 5.019531 -20.21875 4.46875 -20.71875 C 3.914062 -21.226562 3.640625 -21.914062 3.640625 -22.78125 C 3.640625 -24.03125 4.144531 -25.316406 5.15625 -26.640625 C 6.175781 -27.972656 7.398438 -29.070312 8.828125 -29.9375 C 10.265625 -30.8125 11.53125 -31.25 12.625 -31.25 C 13.875 -31.25 14.875 -30.65625 15.625 -29.46875 C 16.375 -28.28125 16.941406 -26.789062 17.328125 -25 C 17.722656 -23.207031 18.15625 -20.765625 18.625 -17.671875 C 19.144531 -13.992188 19.535156 -11.320312 19.796875 -9.65625 C 20.054688 -7.988281 20.332031 -6.421875 20.625 -4.953125 L 22.265625 -11.84375 C 23.390625 -16.738281 24.3125 -20.523438 25.03125 -23.203125 C 25.757812 -25.878906 26.472656 -27.8125 27.171875 -29 C 28.035156 -30.53125 29.207031 -31.296875 30.6875 -31.296875 C 29.644531 -28.609375 28.441406 -24.875 27.078125 -20.09375 C 25.722656 -15.320312 24.566406 -10.6875 23.609375 -6.1875 C 22.660156 -1.6875 22.1875 1.632812 22.1875 3.78125 C 21.050781 3.78125 20.148438 3.507812 19.484375 2.96875 C 18.816406 2.4375 18.328125 1.460938 18.015625 0.046875 C 17.671875 -1.429688 16.46875 -7.859375 14.40625 -19.234375 C 14.175781 -20.503906 13.988281 -21.53125 13.84375 -22.3125 C 13.695312 -23.09375 13.597656 -23.6875 13.546875 -24.09375 C 11.140625 -15.351562 9.382812 -9.195312 8.28125 -5.625 C 7.1875 -2.050781 6.21875 0.40625 5.375 1.75 C 4.539062 3.101562 3.5625 3.78125 2.4375 3.78125 Z M 3.421875 0.609375"/></g><g id="i"><path d="M 9.558594 -1.964844 C 8.535156 -0.789062 7.300781 -0.214844 5.84375 -0.214844 C 5.195312 -0.214844 4.609375 -0.402344 4.113281 -0.789062 C 3.585938 -1.175781 3.199219 -1.6875 2.921875 -2.304688 C 2.644531 -2.953125 2.519531 -3.882812 2.519531 -5.085938 C 2.519531 -6.292969 2.644531 -7.222656 2.921875 -7.855469 C 3.199219 -8.472656 3.585938 -8.984375 4.113281 -9.386719 C 4.609375 -9.757812 5.195312 -9.957031 5.84375 -9.957031 C 7.238281 -9.957031 8.414062 -9.433594 9.386719 -8.414062 L 9.585938 -8.644531 C 8.566406 -9.726562 7.3125 -10.269531 5.84375 -10.269531 C 4.453125 -10.300781 3.246094 -9.789062 2.210938 -8.753906 C 1.160156 -7.699219 0.664062 -6.480469 0.695312 -5.085938 C 0.664062 -3.679688 1.160156 -2.457031 2.210938 -1.421875 C 3.246094 -0.371094 4.453125 0.125 5.84375 0.09375 C 6.601562 0.09375 7.328125 -0.0625 8.011719 -0.386719 C 8.691406 -0.695312 9.261719 -1.144531 9.757812 -1.730469 Z M 9.558594 -1.964844"/></g><g id="j"><path d="M 11.070312 -5.085938 C 11.101562 -6.464844 10.59375 -7.6875 9.542969 -8.738281 C 8.488281 -9.789062 7.285156 -10.300781 5.921875 -10.269531 C 4.53125 -10.300781 3.324219 -9.789062 2.289062 -8.753906 C 1.238281 -7.699219 0.742188 -6.480469 0.773438 -5.085938 C 0.742188 -3.679688 1.238281 -2.457031 2.289062 -1.421875 C 3.324219 -0.371094 4.53125 0.125 5.921875 0.09375 C 7.285156 0.125 8.488281 -0.386719 9.542969 -1.4375 C 10.59375 -2.488281 11.101562 -3.695312 11.070312 -5.085938 Z M 9.246094 -5.085938 C 9.246094 -3.851562 9.109375 -2.921875 8.828125 -2.304688 C 8.535156 -1.671875 8.148438 -1.160156 7.65625 -0.789062 C 7.144531 -0.402344 6.570312 -0.214844 5.921875 -0.214844 C 5.242188 -0.214844 4.671875 -0.402344 4.191406 -0.789062 C 3.664062 -1.175781 3.277344 -1.6875 3 -2.304688 C 2.722656 -2.953125 2.597656 -3.882812 2.597656 -5.085938 C 2.597656 -6.292969 2.722656 -7.222656 3 -7.855469 C 3.277344 -8.472656 3.664062 -8.984375 4.191406 -9.386719 C 4.671875 -9.757812 5.242188 -9.941406 5.921875 -9.941406 C 6.570312 -9.941406 7.160156 -9.757812 7.65625 -9.386719 C 8.148438 -9 8.550781 -8.488281 8.828125 -7.855469 C 9.109375 -7.238281 9.246094 -6.308594 9.246094 -5.085938 Z M 9.246094 -5.085938"/></g><g id="k"><path d="M 8.011719 -2.890625 C 8.011719 -3.511719 7.777344 -4.050781 7.3125 -4.5 C 6.851562 -4.949219 6.109375 -5.414062 5.070312 -5.890625 L 4.609375 -6.109375 C 4.050781 -6.355469 3.570312 -6.585938 3.140625 -6.820312 C 2.828125 -6.972656 2.566406 -7.175781 2.367188 -7.421875 C 2.179688 -7.640625 2.085938 -7.917969 2.085938 -8.257812 C 2.085938 -8.800781 2.289062 -9.214844 2.691406 -9.511719 C 3.09375 -9.804688 3.664062 -9.957031 4.40625 -9.957031 C 5.027344 -9.957031 5.628906 -9.804688 6.214844 -9.496094 C 6.789062 -9.199219 7.207031 -8.785156 7.484375 -8.242188 L 7.6875 -8.488281 C 7.421875 -9.015625 6.972656 -9.449219 6.355469 -9.789062 C 5.738281 -10.097656 5.085938 -10.269531 4.375 -10.269531 C 3.402344 -10.269531 2.582031 -10.003906 1.917969 -9.496094 C 1.253906 -8.984375 0.929688 -8.289062 0.929688 -7.421875 C 0.957031 -6.710938 1.191406 -6.15625 1.625 -5.785156 C 2.058594 -5.414062 2.875 -4.964844 4.097656 -4.453125 C 4.996094 -4.066406 5.660156 -3.695312 6.0625 -3.324219 C 6.464844 -2.953125 6.679688 -2.550781 6.679688 -2.101562 C 6.679688 -1.515625 6.480469 -1.050781 6.078125 -0.710938 C 5.675781 -0.371094 5.117188 -0.214844 4.40625 -0.214844 C 3.757812 -0.214844 3.109375 -0.355469 2.488281 -0.632812 C 1.839844 -0.929688 1.390625 -1.34375 1.128906 -1.871094 L 0.941406 -1.625 C 1.238281 -1.050781 1.714844 -0.617188 2.382812 -0.339844 C 3.03125 -0.046875 3.695312 0.09375 4.40625 0.09375 C 5.472656 0.09375 6.339844 -0.1875 7.003906 -0.757812 C 7.671875 -1.3125 8.011719 -2.027344 8.011719 -2.890625 Z M 8.011719 -2.890625"/></g><g id="l"><path d="M 6.140625 -3.449219 L 3.171875 -10.175781 L 1.269531 -10.175781 L 1.269531 0 L 1.578125 0 L 1.578125 -9.480469 L 5.367188 -0.867188 L 9.015625 -9.386719 L 9.015625 0 L 10.761719 0 L 10.761719 -10.175781 L 9.015625 -10.175781 Z M 6.140625 -3.449219"/></g><g id="m"><path d="M 7.699219 -10.175781 L 1.269531 -10.175781 L 1.269531 0 L 7.699219 0 L 7.699219 -0.308594 L 3.015625 -0.308594 L 3.015625 -4.933594 L 6.542969 -4.933594 L 6.542969 -5.242188 L 3.015625 -5.242188 L 3.015625 -9.867188 L 7.699219 -9.867188 Z M 7.699219 -10.175781"/></g><g id="n"><path d="M 0.757812 -10.175781 L 0.757812 -9.867188 L 3.804688 -9.867188 L 3.804688 0 L 5.550781 0 L 5.550781 -9.867188 L 8.597656 -9.867188 L 8.597656 -10.175781 Z M 0.757812 -10.175781"/></g><g id="o"><path d="M 1.390625 0 L 3.140625 0 L 3.140625 -10.175781 L 1.390625 -10.175781 Z M 1.390625 0"/></g><clipPath id="a"><path d="M 0 0.132812 L 142 0.132812 L 142 74.867188 L 0 74.867188 Z M 0 0.132812"/></clipPath><clipPath id="b"><path d="M 4 4 L 87 4 L 87 65 L 4 65 Z M 4 4"/></clipPath><clipPath id="c"><path d="M 84.863281 0.132812 L 91.015625 59.0625 L 5.976562 67.941406 L -0.175781 9.011719 Z M 84.863281 0.132812"/></clipPath><clipPath id="d"><path d="M 84.90625 0.128906 L 91.058594 59.058594 L 6.019531 67.9375 L -0.132812 9.007812 Z M 84.90625 0.128906"/></clipPath></defs><g clip-path="url(#a)"><path fill="#FFF" d="M 0 0.132812 L 142.5 0.132812 L 142.5 82.632812 L 0 82.632812 Z M 0 0.132812"/><path fill="#FFF" d="M 0 0.132812 L 142.5 0.132812 L 142.5 75.132812 L 0 75.132812 Z M 0 0.132812"/><path fill="#4A947F" d="M 0 0.132812 L 142.5 0.132812 L 142.5 75.132812 L 0 75.132812 Z M 0 0.132812"/></g><g clip-path="url(#b)"><g clip-path="url(#c)"><g clip-path="url(#d)"><path fill="#BACDCA" d="M 38.253906 63.332031 C 41.15625 62.269531 44.042969 59.304688 41.507812 56.265625 C 40.398438 54.9375 38.648438 54.3125 37.019531 53.933594 C 34.722656 53.398438 32.398438 53.046875 30.050781 52.875 C 24.855469 52.496094 19.738281 52.960938 14.695312 54.269531 C 20.261719 49.328125 25.992188 44.542969 32.015625 40.179688 C 32.03125 40.179688 32.046875 40.179688 32.0625 40.175781 C 36.402344 39.863281 40.261719 41.941406 44.171875 43.503906 C 48.082031 45.070312 52.355469 45.933594 56.5625 44.925781 C 58.042969 44.574219 59.355469 43.675781 59.21875 41.980469 C 59.0625 40.199219 57.671875 39.035156 56.085938 38.472656 C 52.53125 37.210938 48.582031 36.992188 44.84375 37.027344 C 41.695312 37.070312 38.5625 37.3125 35.445312 37.753906 C 39.230469 35.140625 43.148438 32.746094 47.195312 30.566406 C 55.683594 26.964844 64.921875 30.898438 73.652344 31.144531 C 77.421875 31.253906 82.28125 30.867188 85.085938 28.007812 C 87.46875 25.578125 87.078125 20.957031 83.699219 19.636719 C 79.488281 17.992188 74.109375 19.027344 69.855469 19.953125 C 65.160156 20.988281 60.585938 22.417969 56.132812 24.242188 C 52.859375 25.582031 49.667969 27.09375 46.554688 28.78125 C 46.535156 28.78125 46.511719 28.796875 46.492188 28.808594 C 46.464844 28.816406 46.4375 28.835938 46.417969 28.855469 C 45.839844 29.164062 45.269531 29.476562 44.703125 29.796875 C 47.191406 26.496094 49.851562 23.34375 52.6875 20.339844 C 54.484375 18.433594 56.515625 16.703125 58.21875 14.714844 C 59.648438 13.039062 60.664062 10.921875 60.28125 8.664062 C 59.511719 4.121094 54.324219 3.355469 50.96875 5.53125 C 47.066406 8.070312 44.25 12.78125 42.558594 17.023438 C 40.613281 21.925781 39.945312 26.996094 40.550781 32.238281 C 37.359375 34.203125 34.25 36.304688 31.222656 38.503906 C 29.796875 39.539062 28.386719 40.597656 26.992188 41.679688 C 28.140625 39.601562 29.128906 37.449219 29.957031 35.222656 C 31.230469 31.78125 32.488281 27.761719 31.664062 24.058594 C 31.09375 21.496094 28.90625 18.273438 25.886719 19.714844 C 22.515625 21.320312 22.515625 26.425781 22.371094 29.582031 C 22.136719 34.667969 22.691406 39.753906 23.003906 44.828125 C 19.1875 47.933594 15.46875 51.15625 11.8125 54.449219 C 13.199219 52.09375 14.292969 49.609375 15.09375 46.996094 C 16.070312 43.773438 16.972656 39.980469 15.679688 36.714844 C 14.386719 33.449219 10.875 32.332031 8.003906 34.4375 C 4.902344 36.710938 4.523438 41.414062 4.625 44.949219 C 4.703125 47.171875 5.066406 49.347656 5.714844 51.476562 C 6.363281 53.605469 7.273438 55.617188 8.441406 57.503906 C 7.523438 58.347656 6.609375 59.191406 5.691406 60.039062 C 5.238281 60.453125 6.03125 62.148438 6.566406 61.65625 C 7.914062 60.414062 9.265625 59.167969 10.625 57.929688 C 10.660156 57.925781 10.691406 57.921875 10.722656 57.917969 C 15.828125 56.613281 20.441406 59.808594 24.800781 61.992188 C 29.066406 64.117188 33.675781 65.007812 38.253906 63.332031 Z M 38.253906 63.332031"/></g></g></g><g fill="#FFF"><use x="53.188" y="39.608" xmlns:xlink="http://www.w3.org/1999/xlink" xlink:href="#e" xlink:type="simple" xlink:actuate="onLoad" xlink:show="embed"/></g><g fill="#FFF"><use x="77.449" y="39.608" xmlns:xlink="http://www.w3.org/1999/xlink" xlink:href="#f" xlink:type="simple" xlink:actuate="onLoad" xlink:show="embed"/></g><g fill="#FFF"><use x="109.999" y="39.608" xmlns:xlink="http://www.w3.org/1999/xlink" xlink:href="#g" xlink:type="simple" xlink:actuate="onLoad" xlink:show="embed"/></g><g fill="#FFF"><use x="139.231" y="39.608" xmlns:xlink="http://www.w3.org/1999/xlink" xlink:href="#h" xlink:type="simple" xlink:actuate="onLoad" xlink:show="embed"/></g><g fill="#FFF"><use x="33.161" y="64.587" xmlns:xlink="http://www.w3.org/1999/xlink" xlink:href="#i" xlink:type="simple" xlink:actuate="onLoad" xlink:show="embed"/></g><g fill="#FFF"><use x="43.609" y="64.587" xmlns:xlink="http://www.w3.org/1999/xlink" xlink:href="#j" xlink:type="simple" xlink:actuate="onLoad" xlink:show="embed"/></g><g fill="#FFF"><use x="55.448" y="64.587" xmlns:xlink="http://www.w3.org/1999/xlink" xlink:href="#k" xlink:type="simple" xlink:actuate="onLoad" xlink:show="embed"/></g><g fill="#FFF"><use x="64.366" y="64.587" xmlns:xlink="http://www.w3.org/1999/xlink" xlink:href="#l" xlink:type="simple" xlink:actuate="onLoad" xlink:show="embed"/></g><g fill="#FFF"><use x="76.375" y="64.587" xmlns:xlink="http://www.w3.org/1999/xlink" xlink:href="#m" xlink:type="simple" xlink:actuate="onLoad" xlink:show="embed"/></g><g fill="#FFF"><use x="84.999" y="64.587" xmlns:xlink="http://www.w3.org/1999/xlink" xlink:href="#n" xlink:type="simple" xlink:actuate="onLoad" xlink:show="embed"/></g><g fill="#FFF"><use x="94.35" y="64.587" xmlns:xlink="http://www.w3.org/1999/xlink" xlink:href="#o" xlink:type="simple" xlink:actuate="onLoad" xlink:show="embed"/></g><g fill="#FFF"><use x="98.878" y="64.587" xmlns:xlink="http://www.w3.org/1999/xlink" xlink:href="#i" xlink:type="simple" xlink:actuate="onLoad" xlink:show="embed"/></g></svg>