<svg xmlns="http://www.w3.org/2000/svg" xmlns:xlink="http://www.w3.org/1999/xlink" width="142.5" viewBox="0 0 142.5 75" height="75" version="1.0"><defs><g id="d"><path d="M 3.84375 2.859375 C 3.164062 2.859375 2.539062 2.675781 1.96875 2.3125 C 1.40625 1.957031 1.125 1.515625 1.125 0.984375 C 1.125 0.609375 1.265625 -0.00390625 1.546875 -0.859375 C 3.234375 -6.023438 4.59375 -10.054688 5.625 -12.953125 C 6.65625 -15.847656 7.914062 -18.945312 9.40625 -22.25 C 8.28125 -21.988281 7.128906 -21.550781 5.953125 -20.9375 C 5.421875 -20.675781 5.101562 -20.546875 5 -20.546875 C 4.800781 -20.546875 4.539062 -20.703125 4.21875 -21.015625 C 3.90625 -21.335938 3.75 -21.609375 3.75 -21.828125 C 6.6875 -23.054688 9.257812 -23.671875 11.46875 -23.671875 C 12.914062 -23.671875 14.347656 -23.414062 15.765625 -22.90625 C 17.179688 -22.40625 18.347656 -21.664062 19.265625 -20.6875 C 20.179688 -19.71875 20.640625 -18.5625 20.640625 -17.21875 C 20.640625 -15.125 19.796875 -13.503906 18.109375 -12.359375 C 16.421875 -11.222656 14.570312 -10.460938 12.5625 -10.078125 C 10.5625 -9.691406 8.875 -9.5 7.5 -9.5 L 7.296875 -9.5 L 5.453125 -2.890625 C 4.992188 -1.140625 4.457031 0.773438 3.84375 2.859375 Z M 7.59375 -10.515625 C 9.34375 -10.628906 11 -10.96875 12.5625 -11.53125 C 14.132812 -12.101562 15.421875 -12.914062 16.421875 -13.96875 C 17.421875 -15.019531 17.921875 -16.28125 17.921875 -17.75 C 17.921875 -19.257812 17.335938 -20.421875 16.171875 -21.234375 C 15.015625 -22.046875 13.601562 -22.472656 11.9375 -22.515625 C 10.625 -19.972656 9.175781 -15.972656 7.59375 -10.515625 Z M 7.59375 -10.515625"/></g><g id="e"><path d="M 19.328125 3.25 C 18.515625 3.25 17.816406 2.894531 17.234375 2.1875 C 16.660156 1.476562 16.375 0.609375 16.375 -0.421875 L 16.4375 -2.140625 C 14.613281 1.210938 12.28125 2.890625 9.4375 2.890625 C 7.96875 2.890625 6.820312 2.453125 6 1.578125 C 5.175781 0.703125 4.765625 -0.523438 4.765625 -2.109375 C 4.765625 -3.160156 4.914062 -4.285156 5.21875 -5.484375 C 5.53125 -6.691406 6.015625 -8.304688 6.671875 -10.328125 C 7.328125 -12.359375 7.832031 -14.0625 8.1875 -15.4375 C 8.539062 -16.820312 8.71875 -18.117188 8.71875 -19.328125 C 8.71875 -21.304688 8.125 -22.296875 6.9375 -22.296875 C 6.21875 -22.296875 5.601562 -22 5.09375 -21.40625 C 4.59375 -20.8125 4.210938 -20.109375 3.953125 -19.296875 C 3.703125 -18.484375 3.578125 -17.78125 3.578125 -17.1875 C 3.578125 -16.507812 3.722656 -15.8125 4.015625 -15.09375 C 3.003906 -15.09375 2.257812 -15.320312 1.78125 -15.78125 C 1.3125 -16.238281 1.078125 -16.851562 1.078125 -17.625 C 1.078125 -18.519531 1.375 -19.4375 1.96875 -20.375 C 2.5625 -21.320312 3.367188 -22.101562 4.390625 -22.71875 C 5.410156 -23.332031 6.519531 -23.640625 7.71875 -23.640625 C 9.019531 -23.640625 9.984375 -23.265625 10.609375 -22.515625 C 11.234375 -21.773438 11.546875 -20.734375 11.546875 -19.390625 C 11.546875 -18.316406 11.375 -17.082031 11.03125 -15.6875 C 10.6875 -14.300781 10.195312 -12.597656 9.5625 -10.578125 C 8.90625 -8.484375 8.425781 -6.835938 8.125 -5.640625 C 7.832031 -4.441406 7.6875 -3.382812 7.6875 -2.46875 C 7.6875 -1.375 7.90625 -0.503906 8.34375 0.140625 C 8.78125 0.796875 9.472656 1.125 10.421875 1.125 C 11.535156 1.125 12.550781 0.675781 13.46875 -0.21875 C 14.394531 -1.125 15.164062 -2.234375 15.78125 -3.546875 C 16.394531 -4.859375 16.851562 -6.164062 17.15625 -7.46875 C 18.363281 -12.394531 19.425781 -16.320312 20.34375 -19.25 C 21.269531 -22.175781 22.160156 -23.640625 23.015625 -23.640625 C 23.234375 -23.640625 23.53125 -23.523438 23.90625 -23.296875 C 24.289062 -23.066406 24.691406 -22.753906 25.109375 -22.359375 C 24.691406 -22.046875 23.972656 -20.5625 22.953125 -17.90625 C 21.941406 -15.257812 21.035156 -12.359375 20.234375 -9.203125 C 19.429688 -6.046875 19.03125 -3.460938 19.03125 -1.453125 C 19.03125 -0.523438 19.128906 0.171875 19.328125 0.640625 C 19.523438 1.109375 19.84375 1.4375 20.28125 1.625 C 20.71875 1.8125 21.332031 1.90625 22.125 1.90625 C 21.882812 2.300781 21.484375 2.625 20.921875 2.875 C 20.367188 3.125 19.835938 3.25 19.328125 3.25 Z M 19.328125 3.25"/></g><g id="f"><path d="M 2.59375 0.453125 C 4.519531 -5.703125 6.59375 -12.601562 8.8125 -20.25 C 8.96875 -20.863281 9.046875 -21.289062 9.046875 -21.53125 C 9.046875 -21.707031 9.015625 -21.828125 8.953125 -21.890625 C 8.898438 -21.960938 8.785156 -22 8.609375 -22 C 8.015625 -22 7.441406 -21.695312 6.890625 -21.09375 C 6.347656 -20.488281 5.90625 -19.765625 5.5625 -18.921875 C 5.226562 -18.078125 5.0625 -17.328125 5.0625 -16.671875 C 5.0625 -16.140625 5.171875 -15.625 5.390625 -15.125 C 4.472656 -15.125 3.804688 -15.3125 3.390625 -15.6875 C 2.972656 -16.070312 2.765625 -16.597656 2.765625 -17.265625 C 2.765625 -18.203125 3.144531 -19.175781 3.90625 -20.1875 C 4.675781 -21.195312 5.601562 -22.03125 6.6875 -22.6875 C 7.769531 -23.34375 8.726562 -23.671875 9.5625 -23.671875 C 10.507812 -23.671875 11.265625 -23.21875 11.828125 -22.3125 C 12.398438 -21.414062 12.832031 -20.285156 13.125 -18.921875 C 13.425781 -17.566406 13.753906 -15.71875 14.109375 -13.375 C 14.492188 -10.59375 14.785156 -8.570312 14.984375 -7.3125 C 15.179688 -6.050781 15.390625 -4.863281 15.609375 -3.75 L 16.859375 -8.96875 C 17.710938 -12.675781 18.414062 -15.539062 18.96875 -17.5625 C 19.519531 -19.59375 20.054688 -21.054688 20.578125 -21.953125 C 21.234375 -23.117188 22.125 -23.703125 23.25 -23.703125 C 22.457031 -21.660156 21.546875 -18.832031 20.515625 -15.21875 C 19.484375 -11.601562 18.601562 -8.09375 17.875 -4.6875 C 17.15625 -1.28125 16.796875 1.234375 16.796875 2.859375 C 15.941406 2.859375 15.257812 2.65625 14.75 2.25 C 14.25 1.84375 13.878906 1.101562 13.640625 0.03125 C 13.378906 -1.082031 12.472656 -5.945312 10.921875 -14.5625 C 10.742188 -15.53125 10.597656 -16.304688 10.484375 -16.890625 C 10.378906 -17.484375 10.300781 -17.9375 10.25 -18.25 C 8.4375 -11.625 7.113281 -6.957031 6.28125 -4.25 C 5.445312 -1.550781 4.710938 0.304688 4.078125 1.328125 C 3.441406 2.347656 2.695312 2.859375 1.84375 2.859375 Z M 2.59375 0.453125"/></g><g id="h"><path d="M 7.171875 -1.472656 C 6.40625 -0.589844 5.476562 -0.164062 4.386719 -0.164062 C 3.898438 -0.164062 3.457031 -0.300781 3.085938 -0.589844 C 2.691406 -0.882812 2.402344 -1.265625 2.191406 -1.730469 C 1.984375 -2.214844 1.890625 -2.914062 1.890625 -3.816406 C 1.890625 -4.722656 1.984375 -5.417969 2.191406 -5.894531 C 2.402344 -6.359375 2.691406 -6.742188 3.085938 -7.042969 C 3.457031 -7.320312 3.898438 -7.472656 4.386719 -7.472656 C 5.429688 -7.472656 6.3125 -7.078125 7.042969 -6.3125 L 7.195312 -6.488281 C 6.429688 -7.296875 5.488281 -7.703125 4.386719 -7.703125 C 3.34375 -7.726562 2.4375 -7.34375 1.660156 -6.566406 C 0.871094 -5.777344 0.5 -4.863281 0.523438 -3.816406 C 0.5 -2.761719 0.871094 -1.84375 1.660156 -1.066406 C 2.4375 -0.277344 3.34375 0.09375 4.386719 0.0703125 C 4.953125 0.0703125 5.5 -0.046875 6.011719 -0.289062 C 6.519531 -0.523438 6.949219 -0.859375 7.320312 -1.300781 Z M 7.171875 -1.472656"/></g><g id="i"><path d="M 8.308594 -3.816406 C 8.332031 -4.851562 7.949219 -5.765625 7.160156 -6.554688 C 6.371094 -7.34375 5.464844 -7.726562 4.445312 -7.703125 C 3.398438 -7.726562 2.496094 -7.34375 1.71875 -6.566406 C 0.929688 -5.777344 0.558594 -4.863281 0.582031 -3.816406 C 0.558594 -2.761719 0.929688 -1.84375 1.71875 -1.066406 C 2.496094 -0.277344 3.398438 0.09375 4.445312 0.0703125 C 5.464844 0.09375 6.371094 -0.289062 7.160156 -1.078125 C 7.949219 -1.867188 8.332031 -2.773438 8.308594 -3.816406 Z M 6.9375 -3.816406 C 6.9375 -2.890625 6.835938 -2.191406 6.625 -1.730469 C 6.40625 -1.253906 6.113281 -0.871094 5.742188 -0.589844 C 5.359375 -0.300781 4.929688 -0.164062 4.445312 -0.164062 C 3.933594 -0.164062 3.503906 -0.300781 3.144531 -0.589844 C 2.75 -0.882812 2.460938 -1.265625 2.25 -1.730469 C 2.042969 -2.214844 1.949219 -2.914062 1.949219 -3.816406 C 1.949219 -4.722656 2.042969 -5.417969 2.25 -5.894531 C 2.460938 -6.359375 2.75 -6.742188 3.144531 -7.042969 C 3.503906 -7.320312 3.933594 -7.460938 4.445312 -7.460938 C 4.929688 -7.460938 5.371094 -7.320312 5.742188 -7.042969 C 6.113281 -6.753906 6.417969 -6.371094 6.625 -5.894531 C 6.835938 -5.429688 6.9375 -4.734375 6.9375 -3.816406 Z M 6.9375 -3.816406"/></g><g id="j"><path d="M 6.011719 -2.167969 C 6.011719 -2.632812 5.835938 -3.039062 5.488281 -3.375 C 5.140625 -3.714844 4.582031 -4.0625 3.804688 -4.421875 L 3.457031 -4.582031 C 3.039062 -4.769531 2.679688 -4.941406 2.355469 -5.117188 C 2.125 -5.234375 1.925781 -5.382812 1.773438 -5.570312 C 1.636719 -5.730469 1.566406 -5.941406 1.566406 -6.195312 C 1.566406 -6.601562 1.71875 -6.914062 2.019531 -7.136719 C 2.320312 -7.355469 2.75 -7.472656 3.308594 -7.472656 C 3.769531 -7.472656 4.222656 -7.355469 4.664062 -7.125 C 5.09375 -6.902344 5.40625 -6.589844 5.617188 -6.183594 L 5.765625 -6.371094 C 5.570312 -6.765625 5.234375 -7.089844 4.769531 -7.34375 C 4.304688 -7.578125 3.816406 -7.703125 3.285156 -7.703125 C 2.554688 -7.703125 1.9375 -7.507812 1.4375 -7.125 C 0.941406 -6.742188 0.695312 -6.21875 0.695312 -5.570312 C 0.71875 -5.035156 0.894531 -4.617188 1.21875 -4.339844 C 1.542969 -4.0625 2.160156 -3.726562 3.074219 -3.34375 C 3.746094 -3.050781 4.246094 -2.773438 4.546875 -2.496094 C 4.851562 -2.214844 5.011719 -1.914062 5.011719 -1.578125 C 5.011719 -1.136719 4.863281 -0.789062 4.558594 -0.535156 C 4.257812 -0.277344 3.839844 -0.164062 3.308594 -0.164062 C 2.820312 -0.164062 2.332031 -0.265625 1.867188 -0.476562 C 1.378906 -0.695312 1.042969 -1.007812 0.847656 -1.402344 L 0.707031 -1.21875 C 0.929688 -0.789062 1.289062 -0.464844 1.785156 -0.253906 C 2.273438 -0.0351562 2.773438 0.0703125 3.308594 0.0703125 C 4.109375 0.0703125 4.757812 -0.140625 5.257812 -0.570312 C 5.753906 -0.984375 6.011719 -1.519531 6.011719 -2.167969 Z M 6.011719 -2.167969"/></g><g id="k"><path d="M 4.605469 -2.585938 L 2.378906 -7.636719 L 0.953125 -7.636719 L 0.953125 0 L 1.183594 0 L 1.183594 -7.113281 L 4.027344 -0.648438 L 6.765625 -7.042969 L 6.765625 0 L 8.074219 0 L 8.074219 -7.636719 L 6.765625 -7.636719 Z M 4.605469 -2.585938"/></g><g id="l"><path d="M 5.777344 -7.636719 L 0.953125 -7.636719 L 0.953125 0 L 5.777344 0 L 5.777344 -0.230469 L 2.261719 -0.230469 L 2.261719 -3.703125 L 4.910156 -3.703125 L 4.910156 -3.933594 L 2.261719 -3.933594 L 2.261719 -7.402344 L 5.777344 -7.402344 Z M 5.777344 -7.636719"/></g><g id="m"><path d="M 0.570312 -7.636719 L 0.570312 -7.402344 L 2.855469 -7.402344 L 2.855469 0 L 4.164062 0 L 4.164062 -7.402344 L 6.453125 -7.402344 L 6.453125 -7.636719 Z M 0.570312 -7.636719"/></g><g id="n"><path d="M 1.042969 0 L 2.355469 0 L 2.355469 -7.636719 L 1.042969 -7.636719 Z M 1.042969 0"/></g><clipPath id="a"><path d="M 6 0 L 67 0 L 67 43 L 6 43 Z M 6 0"/></clipPath><clipPath id="b"><path d="M 64.898438 -4.046875 L 69.335938 38.421875 L 7.496094 44.878906 L 3.0625 2.410156 Z M 64.898438 -4.046875"/></clipPath><clipPath id="c"><path d="M 64.929688 -4.050781 L 69.367188 38.417969 L 7.527344 44.875 L 3.09375 2.410156 Z M 64.929688 -4.050781"/></clipPath></defs><g clip-path="url(#a)"><g clip-path="url(#b)"><g clip-path="url(#c)"><path fill="#BACDCA" d="M 30.964844 41.527344 C 33.078125 40.761719 35.179688 38.621094 33.335938 36.433594 C 32.53125 35.476562 31.257812 35.027344 30.078125 34.757812 C 28.40625 34.375 26.71875 34.121094 25.007812 34 C 21.230469 33.730469 17.511719 34.070312 13.84375 35.015625 C 17.894531 31.453125 22.066406 28 26.445312 24.851562 C 26.460938 24.851562 26.472656 24.851562 26.480469 24.847656 C 29.636719 24.621094 32.441406 26.113281 35.285156 27.238281 C 38.125 28.363281 41.234375 28.984375 44.292969 28.253906 C 45.367188 28 46.324219 27.351562 46.222656 26.128906 C 46.113281 24.847656 45.101562 24.007812 43.949219 23.605469 C 41.367188 22.699219 38.496094 22.542969 35.777344 22.570312 C 33.488281 22.601562 31.210938 22.78125 28.941406 23.101562 C 31.699219 21.214844 34.546875 19.488281 37.492188 17.914062 C 43.664062 15.3125 50.378906 18.140625 56.730469 18.3125 C 59.46875 18.386719 63 18.109375 65.042969 16.042969 C 66.78125 14.292969 66.5 10.960938 64.042969 10.015625 C 60.980469 8.832031 57.070312 9.582031 53.972656 10.253906 C 50.558594 11 47.234375 12.035156 43.996094 13.351562 C 41.613281 14.320312 39.292969 15.410156 37.027344 16.628906 C 37.011719 16.628906 36.996094 16.640625 36.980469 16.648438 C 36.960938 16.65625 36.941406 16.667969 36.925781 16.683594 C 36.503906 16.902344 36.09375 17.128906 35.679688 17.363281 C 37.492188 14.980469 39.429688 12.707031 41.492188 10.539062 C 42.800781 9.167969 44.277344 7.921875 45.515625 6.484375 C 46.558594 5.277344 47.296875 3.75 47.019531 2.125 C 46.464844 -1.148438 42.695312 -1.695312 40.253906 -0.125 C 37.414062 1.703125 35.363281 5.101562 34.128906 8.160156 C 32.710938 11.691406 32.222656 15.347656 32.660156 19.125 C 30.335938 20.539062 28.074219 22.054688 25.871094 23.644531 C 24.832031 24.390625 23.808594 25.15625 22.792969 25.9375 C 23.628906 24.4375 24.351562 22.886719 24.953125 21.28125 C 25.878906 18.800781 26.800781 15.902344 26.203125 13.234375 C 25.789062 11.390625 24.203125 9.070312 22.003906 10.109375 C 19.550781 11.269531 19.546875 14.949219 19.441406 17.222656 C 19.265625 20.886719 19.667969 24.550781 19.890625 28.207031 C 17.113281 30.445312 14.410156 32.769531 11.746094 35.148438 C 12.757812 33.449219 13.554688 31.660156 14.136719 29.773438 C 14.851562 27.453125 15.507812 24.714844 14.570312 22.363281 C 13.632812 20.011719 11.082031 19.210938 8.992188 20.730469 C 6.734375 22.371094 6.457031 25.757812 6.527344 28.308594 C 6.640625 31.566406 7.5625 34.582031 9.292969 37.351562 C 8.625 37.957031 7.960938 38.566406 7.292969 39.175781 C 6.964844 39.476562 7.539062 40.699219 7.925781 40.34375 C 8.90625 39.445312 9.894531 38.550781 10.882812 37.652344 C 10.90625 37.652344 10.929688 37.652344 10.953125 37.648438 C 14.664062 36.703125 18.015625 39.003906 21.1875 40.574219 C 24.285156 42.101562 27.636719 42.738281 30.964844 41.527344 Z M 30.964844 41.527344"/></g></g></g><g fill="#4A947F"><use x="47.881" y="36.085" xmlns:xlink="http://www.w3.org/1999/xlink" xlink:href="#d" xlink:type="simple" xlink:actuate="onLoad" xlink:show="embed"/></g><g fill="#4A947F"><use x="66.253" y="36.085" xmlns:xlink="http://www.w3.org/1999/xlink" xlink:href="#e" xlink:type="simple" xlink:actuate="onLoad" xlink:show="embed"/></g><g fill="#4A947F"><use x="90.903" y="36.085" xmlns:xlink="http://www.w3.org/1999/xlink" xlink:href="#f" xlink:type="simple" xlink:actuate="onLoad" xlink:show="embed"/></g><g fill="#4A947F"><use x="113.052" y="36.085" xmlns:xlink="http://www.w3.org/1999/xlink" xlink:href="#g" xlink:type="simple" xlink:actuate="onLoad" xlink:show="embed"/></g><g fill="#4A947F"><use x="33.113" y="47.885" xmlns:xlink="http://www.w3.org/1999/xlink" xlink:href="#h" xlink:type="simple" xlink:actuate="onLoad" xlink:show="embed"/></g><g fill="#4A947F"><use x="40.954" y="47.885" xmlns:xlink="http://www.w3.org/1999/xlink" xlink:href="#i" xlink:type="simple" xlink:actuate="onLoad" xlink:show="embed"/></g><g fill="#4A947F"><use x="49.84" y="47.885" xmlns:xlink="http://www.w3.org/1999/xlink" xlink:href="#j" xlink:type="simple" xlink:actuate="onLoad" xlink:show="embed"/></g><g fill="#4A947F"><use x="56.532" y="47.885" xmlns:xlink="http://www.w3.org/1999/xlink" xlink:href="#k" xlink:type="simple" xlink:actuate="onLoad" xlink:show="embed"/></g><g fill="#4A947F"><use x="65.545" y="47.885" xmlns:xlink="http://www.w3.org/1999/xlink" xlink:href="#l" xlink:type="simple" xlink:actuate="onLoad" xlink:show="embed"/></g><g fill="#4A947F"><use x="72.017" y="47.885" xmlns:xlink="http://www.w3.org/1999/xlink" xlink:href="#m" xlink:type="simple" xlink:actuate="onLoad" xlink:show="embed"/></g><g fill="#4A947F"><use x="79.035" y="47.885" xmlns:xlink="http://www.w3.org/1999/xlink" xlink:href="#n" xlink:type="simple" xlink:actuate="onLoad" xlink:show="embed"/></g><g fill="#4A947F"><use x="82.434" y="47.885" xmlns:xlink="http://www.w3.org/1999/xlink" xlink:href="#h" xlink:type="simple" xlink:actuate="onLoad" xlink:show="embed"/></g></svg>