<svg xmlns="http://www.w3.org/2000/svg" xmlns:xlink="http://www.w3.org/1999/xlink" width="127.5" viewBox="0 0 127.5 48.75" height="48.75" version="1.0"><defs><g id="d"><path d="M 2.984375 2.21875 C 2.453125 2.21875 1.960938 2.078125 1.515625 1.796875 C 1.078125 1.515625 0.859375 1.171875 0.859375 0.765625 C 0.859375 0.472656 0.972656 0 1.203125 -0.65625 C 2.503906 -4.675781 3.554688 -7.804688 4.359375 -10.046875 C 5.160156 -12.285156 6.140625 -14.691406 7.296875 -17.265625 C 6.429688 -17.054688 5.535156 -16.71875 4.609375 -16.25 C 4.203125 -16.039062 3.957031 -15.9375 3.875 -15.9375 C 3.71875 -15.9375 3.515625 -16.054688 3.265625 -16.296875 C 3.023438 -16.546875 2.90625 -16.757812 2.90625 -16.9375 C 5.1875 -17.882812 7.1875 -18.359375 8.90625 -18.359375 C 10.019531 -18.359375 11.125 -18.160156 12.21875 -17.765625 C 13.320312 -17.378906 14.226562 -16.804688 14.9375 -16.046875 C 15.65625 -15.296875 16.015625 -14.398438 16.015625 -13.359375 C 16.015625 -11.722656 15.359375 -10.460938 14.046875 -9.578125 C 12.742188 -8.703125 11.3125 -8.113281 9.75 -7.8125 C 8.195312 -7.519531 6.882812 -7.375 5.8125 -7.375 L 5.65625 -7.375 L 4.234375 -2.25 C 3.878906 -0.882812 3.460938 0.601562 2.984375 2.21875 Z M 5.890625 -8.15625 C 7.253906 -8.238281 8.539062 -8.5 9.75 -8.9375 C 10.96875 -9.382812 11.960938 -10.015625 12.734375 -10.828125 C 13.503906 -11.648438 13.890625 -12.628906 13.890625 -13.765625 C 13.890625 -14.941406 13.4375 -15.84375 12.53125 -16.46875 C 11.632812 -17.101562 10.539062 -17.4375 9.25 -17.46875 C 8.226562 -15.5 7.109375 -12.394531 5.890625 -8.15625 Z M 5.890625 -8.15625"/></g><g id="e"><path d="M 15 2.53125 C 14.363281 2.53125 13.820312 2.25 13.375 1.6875 C 12.925781 1.132812 12.703125 0.460938 12.703125 -0.328125 L 12.75 -1.65625 C 11.34375 0.945312 9.53125 2.25 7.3125 2.25 C 6.175781 2.25 5.289062 1.90625 4.65625 1.21875 C 4.019531 0.539062 3.703125 -0.40625 3.703125 -1.625 C 3.703125 -2.445312 3.816406 -3.320312 4.046875 -4.25 C 4.285156 -5.1875 4.660156 -6.4375 5.171875 -8 C 5.679688 -9.582031 6.070312 -10.910156 6.34375 -11.984375 C 6.613281 -13.054688 6.75 -14.0625 6.75 -15 C 6.75 -16.519531 6.289062 -17.28125 5.375 -17.28125 C 4.8125 -17.28125 4.332031 -17.050781 3.9375 -16.59375 C 3.550781 -16.132812 3.257812 -15.59375 3.0625 -14.96875 C 2.875 -14.34375 2.78125 -13.800781 2.78125 -13.34375 C 2.78125 -12.8125 2.890625 -12.265625 3.109375 -11.703125 C 2.328125 -11.703125 1.753906 -11.878906 1.390625 -12.234375 C 1.023438 -12.597656 0.84375 -13.078125 0.84375 -13.671875 C 0.84375 -14.367188 1.070312 -15.082031 1.53125 -15.8125 C 1.988281 -16.539062 2.613281 -17.140625 3.40625 -17.609375 C 4.195312 -18.085938 5.0625 -18.328125 6 -18.328125 C 7 -18.328125 7.738281 -18.035156 8.21875 -17.453125 C 8.707031 -16.878906 8.953125 -16.078125 8.953125 -15.046875 C 8.953125 -14.210938 8.816406 -13.253906 8.546875 -12.171875 C 8.285156 -11.097656 7.910156 -9.78125 7.421875 -8.21875 C 6.910156 -6.582031 6.539062 -5.300781 6.3125 -4.375 C 6.082031 -3.445312 5.96875 -2.625 5.96875 -1.90625 C 5.96875 -1.0625 6.132812 -0.390625 6.46875 0.109375 C 6.8125 0.609375 7.347656 0.859375 8.078125 0.859375 C 8.953125 0.859375 9.742188 0.515625 10.453125 -0.171875 C 11.171875 -0.867188 11.765625 -1.726562 12.234375 -2.75 C 12.710938 -3.769531 13.070312 -4.78125 13.3125 -5.78125 C 14.25 -9.613281 15.070312 -12.660156 15.78125 -14.921875 C 16.5 -17.191406 17.1875 -18.328125 17.84375 -18.328125 C 18.019531 -18.328125 18.253906 -18.238281 18.546875 -18.0625 C 18.847656 -17.882812 19.160156 -17.644531 19.484375 -17.34375 C 19.160156 -17.101562 18.601562 -15.953125 17.8125 -13.890625 C 17.019531 -11.835938 16.3125 -9.585938 15.6875 -7.140625 C 15.070312 -4.691406 14.765625 -2.6875 14.765625 -1.125 C 14.765625 -0.40625 14.835938 0.132812 14.984375 0.5 C 15.140625 0.863281 15.390625 1.117188 15.734375 1.265625 C 16.078125 1.410156 16.550781 1.484375 17.15625 1.484375 C 16.96875 1.785156 16.65625 2.035156 16.21875 2.234375 C 15.789062 2.429688 15.382812 2.53125 15 2.53125 Z M 15 2.53125"/></g><g id="f"><path d="M 2.015625 0.359375 C 3.515625 -4.421875 5.117188 -9.773438 6.828125 -15.703125 C 6.953125 -16.179688 7.015625 -16.515625 7.015625 -16.703125 C 7.015625 -16.835938 6.992188 -16.929688 6.953125 -16.984375 C 6.910156 -17.035156 6.820312 -17.0625 6.6875 -17.0625 C 6.226562 -17.0625 5.785156 -16.828125 5.359375 -16.359375 C 4.929688 -15.890625 4.582031 -15.328125 4.3125 -14.671875 C 4.050781 -14.015625 3.921875 -13.429688 3.921875 -12.921875 C 3.921875 -12.515625 4.007812 -12.117188 4.1875 -11.734375 C 3.46875 -11.734375 2.945312 -11.878906 2.625 -12.171875 C 2.300781 -12.472656 2.140625 -12.878906 2.140625 -13.390625 C 2.140625 -14.117188 2.4375 -14.875 3.03125 -15.65625 C 3.625 -16.4375 4.34375 -17.082031 5.1875 -17.59375 C 6.03125 -18.101562 6.773438 -18.359375 7.421875 -18.359375 C 8.148438 -18.359375 8.734375 -18.007812 9.171875 -17.3125 C 9.617188 -16.613281 9.957031 -15.738281 10.1875 -14.6875 C 10.414062 -13.632812 10.664062 -12.195312 10.9375 -10.375 C 11.25 -8.21875 11.476562 -6.648438 11.625 -5.671875 C 11.78125 -4.691406 11.941406 -3.769531 12.109375 -2.90625 L 13.078125 -6.96875 C 13.742188 -9.832031 14.285156 -12.050781 14.703125 -13.625 C 15.128906 -15.195312 15.550781 -16.332031 15.96875 -17.03125 C 16.476562 -17.9375 17.164062 -18.390625 18.03125 -18.390625 C 17.414062 -16.804688 16.707031 -14.609375 15.90625 -11.796875 C 15.113281 -8.992188 14.4375 -6.269531 13.875 -3.625 C 13.3125 -0.988281 13.03125 0.957031 13.03125 2.21875 C 12.363281 2.21875 11.832031 2.0625 11.4375 1.75 C 11.050781 1.4375 10.765625 0.863281 10.578125 0.03125 C 10.378906 -0.84375 9.675781 -4.617188 8.46875 -11.296875 C 8.332031 -12.046875 8.21875 -12.648438 8.125 -13.109375 C 8.039062 -13.566406 7.984375 -13.914062 7.953125 -14.15625 C 6.546875 -9.019531 5.519531 -5.398438 4.875 -3.296875 C 4.226562 -1.203125 3.65625 0.238281 3.15625 1.03125 C 2.664062 1.820312 2.085938 2.21875 1.421875 2.21875 Z M 2.015625 0.359375"/></g><g id="h"><path d="M 6 -1.234375 C 5.359375 -0.496094 4.582031 -0.136719 3.667969 -0.136719 C 3.261719 -0.136719 2.894531 -0.253906 2.582031 -0.496094 C 2.253906 -0.738281 2.007812 -1.058594 1.835938 -1.445312 C 1.660156 -1.855469 1.582031 -2.4375 1.582031 -3.195312 C 1.582031 -3.953125 1.660156 -4.535156 1.835938 -4.933594 C 2.007812 -5.320312 2.253906 -5.640625 2.582031 -5.894531 C 2.894531 -6.125 3.261719 -6.253906 3.667969 -6.253906 C 4.542969 -6.253906 5.28125 -5.921875 5.894531 -5.28125 L 6.019531 -5.425781 C 5.378906 -6.105469 4.59375 -6.445312 3.667969 -6.445312 C 2.796875 -6.464844 2.039062 -6.144531 1.386719 -5.496094 C 0.726562 -4.835938 0.417969 -4.066406 0.4375 -3.195312 C 0.417969 -2.3125 0.726562 -1.542969 1.386719 -0.894531 C 2.039062 -0.234375 2.796875 0.078125 3.667969 0.0585938 C 4.144531 0.0585938 4.601562 -0.0390625 5.027344 -0.242188 C 5.457031 -0.4375 5.816406 -0.71875 6.125 -1.085938 Z M 6 -1.234375"/></g><g id="i"><path d="M 6.949219 -3.195312 C 6.96875 -4.058594 6.648438 -4.824219 5.988281 -5.484375 C 5.328125 -6.144531 4.574219 -6.464844 3.71875 -6.445312 C 2.84375 -6.464844 2.085938 -6.144531 1.4375 -5.496094 C 0.777344 -4.835938 0.464844 -4.066406 0.484375 -3.195312 C 0.464844 -2.3125 0.777344 -1.542969 1.4375 -0.894531 C 2.085938 -0.234375 2.84375 0.078125 3.71875 0.0585938 C 4.574219 0.078125 5.328125 -0.242188 5.988281 -0.902344 C 6.648438 -1.5625 6.96875 -2.320312 6.949219 -3.195312 Z M 5.804688 -3.195312 C 5.804688 -2.417969 5.71875 -1.835938 5.542969 -1.445312 C 5.359375 -1.046875 5.117188 -0.726562 4.804688 -0.496094 C 4.484375 -0.253906 4.125 -0.136719 3.71875 -0.136719 C 3.292969 -0.136719 2.933594 -0.253906 2.632812 -0.496094 C 2.300781 -0.738281 2.058594 -1.058594 1.882812 -1.445312 C 1.707031 -1.855469 1.632812 -2.4375 1.632812 -3.195312 C 1.632812 -3.953125 1.707031 -4.535156 1.882812 -4.933594 C 2.058594 -5.320312 2.300781 -5.640625 2.632812 -5.894531 C 2.933594 -6.125 3.292969 -6.242188 3.71875 -6.242188 C 4.125 -6.242188 4.496094 -6.125 4.804688 -5.894531 C 5.117188 -5.648438 5.367188 -5.328125 5.542969 -4.933594 C 5.71875 -4.542969 5.804688 -3.960938 5.804688 -3.195312 Z M 5.804688 -3.195312"/></g><g id="j"><path d="M 5.027344 -1.816406 C 5.027344 -2.203125 4.882812 -2.542969 4.59375 -2.824219 C 4.300781 -3.105469 3.835938 -3.398438 3.183594 -3.699219 L 2.894531 -3.835938 C 2.542969 -3.988281 2.242188 -4.136719 1.972656 -4.28125 C 1.777344 -4.378906 1.613281 -4.503906 1.484375 -4.660156 C 1.367188 -4.796875 1.3125 -4.96875 1.3125 -5.183594 C 1.3125 -5.523438 1.4375 -5.785156 1.6875 -5.96875 C 1.941406 -6.15625 2.300781 -6.253906 2.765625 -6.253906 C 3.15625 -6.253906 3.535156 -6.15625 3.902344 -5.960938 C 4.261719 -5.777344 4.523438 -5.515625 4.699219 -5.175781 L 4.824219 -5.328125 C 4.660156 -5.660156 4.378906 -5.933594 3.988281 -6.144531 C 3.601562 -6.339844 3.195312 -6.445312 2.746094 -6.445312 C 2.136719 -6.445312 1.621094 -6.28125 1.203125 -5.960938 C 0.785156 -5.640625 0.582031 -5.203125 0.582031 -4.660156 C 0.601562 -4.214844 0.746094 -3.863281 1.019531 -3.632812 C 1.292969 -3.398438 1.804688 -3.117188 2.574219 -2.796875 C 3.136719 -2.554688 3.554688 -2.320312 3.804688 -2.085938 C 4.058594 -1.855469 4.195312 -1.601562 4.195312 -1.320312 C 4.195312 -0.953125 4.066406 -0.660156 3.816406 -0.445312 C 3.5625 -0.234375 3.214844 -0.136719 2.765625 -0.136719 C 2.359375 -0.136719 1.953125 -0.222656 1.5625 -0.398438 C 1.15625 -0.582031 0.875 -0.84375 0.707031 -1.175781 L 0.59375 -1.019531 C 0.777344 -0.660156 1.078125 -0.386719 1.496094 -0.214844 C 1.902344 -0.0273438 2.320312 0.0585938 2.765625 0.0585938 C 3.4375 0.0585938 3.980469 -0.117188 4.398438 -0.476562 C 4.816406 -0.824219 5.027344 -1.273438 5.027344 -1.816406 Z M 5.027344 -1.816406"/></g><g id="k"><path d="M 3.855469 -2.164062 L 1.988281 -6.386719 L 0.796875 -6.386719 L 0.796875 0 L 0.992188 0 L 0.992188 -5.953125 L 3.367188 -0.542969 L 5.660156 -5.894531 L 5.660156 0 L 6.757812 0 L 6.757812 -6.386719 L 5.660156 -6.386719 Z M 3.855469 -2.164062"/></g><g id="l"><path d="M 4.835938 -6.386719 L 0.796875 -6.386719 L 0.796875 0 L 4.835938 0 L 4.835938 -0.195312 L 1.894531 -0.195312 L 1.894531 -3.097656 L 4.105469 -3.097656 L 4.105469 -3.292969 L 1.894531 -3.292969 L 1.894531 -6.195312 L 4.835938 -6.195312 Z M 4.835938 -6.386719"/></g><g id="m"><path d="M 0.476562 -6.386719 L 0.476562 -6.195312 L 2.386719 -6.195312 L 2.386719 0 L 3.484375 0 L 3.484375 -6.195312 L 5.398438 -6.195312 L 5.398438 -6.386719 Z M 0.476562 -6.386719"/></g><g id="n"><path d="M 0.875 0 L 1.972656 0 L 1.972656 -6.386719 L 0.875 -6.386719 Z M 0.875 0"/></g><clipPath id="a"><path d="M 18 6 L 69 6 L 69 43 L 18 43 Z M 18 6"/></clipPath><clipPath id="b"><path d="M 66.957031 3.78125 L 70.691406 39.542969 L 19.285156 44.910156 L 15.550781 9.148438 Z M 66.957031 3.78125"/></clipPath><clipPath id="c"><path d="M 66.984375 3.777344 L 70.71875 39.539062 L 19.308594 44.910156 L 15.574219 9.148438 Z M 66.984375 3.777344"/></clipPath></defs><g clip-path="url(#a)"><g clip-path="url(#b)"><g clip-path="url(#c)"><path fill="#BACDCA" d="M 38.792969 42.117188 C 40.550781 41.472656 42.292969 39.675781 40.761719 37.832031 C 40.089844 37.023438 39.03125 36.644531 38.046875 36.414062 C 36.660156 36.089844 35.253906 35.875 33.832031 35.769531 C 30.691406 35.539062 27.597656 35.820312 24.550781 36.613281 C 27.914062 33.617188 31.378906 30.714844 35.019531 28.070312 C 35.027344 28.070312 35.039062 28.070312 35.046875 28.066406 C 37.671875 27.878906 40.003906 29.140625 42.367188 30.089844 C 44.734375 31.039062 47.316406 31.566406 49.859375 30.953125 C 50.753906 30.742188 51.550781 30.195312 51.464844 29.167969 C 51.371094 28.089844 50.527344 27.378906 49.570312 27.039062 C 47.421875 26.273438 45.035156 26.140625 42.773438 26.160156 C 40.871094 26.183594 38.976562 26.332031 37.09375 26.597656 C 39.378906 25.015625 41.746094 23.5625 44.195312 22.238281 C 49.324219 20.058594 54.910156 22.445312 60.191406 22.597656 C 62.46875 22.664062 65.40625 22.433594 67.101562 20.699219 C 68.542969 19.222656 68.304688 16.421875 66.261719 15.617188 C 63.714844 14.621094 60.464844 15.246094 57.890625 15.808594 C 55.050781 16.433594 52.285156 17.300781 49.597656 18.40625 C 47.617188 19.21875 45.6875 20.136719 43.808594 21.15625 C 43.796875 21.15625 43.78125 21.167969 43.769531 21.175781 C 43.75 21.179688 43.734375 21.191406 43.722656 21.203125 C 43.375 21.390625 43.03125 21.578125 42.6875 21.773438 C 44.191406 19.773438 45.796875 17.859375 47.511719 16.035156 C 48.597656 14.882812 49.824219 13.832031 50.855469 12.625 C 51.71875 11.609375 52.332031 10.324219 52.101562 8.957031 C 51.632812 6.199219 48.5 5.734375 46.46875 7.054688 C 44.113281 8.59375 42.410156 11.449219 41.386719 14.023438 C 40.214844 16.996094 39.8125 20.074219 40.179688 23.253906 C 38.25 24.445312 36.371094 25.71875 34.539062 27.050781 C 33.675781 27.679688 32.824219 28.324219 31.980469 28.980469 C 32.675781 27.71875 33.273438 26.414062 33.773438 25.0625 C 34.542969 22.972656 35.300781 20.535156 34.804688 18.289062 C 34.457031 16.734375 33.136719 14.777344 31.308594 15.652344 C 29.269531 16.625 29.273438 19.722656 29.1875 21.640625 C 29.042969 24.722656 29.382812 27.808594 29.570312 30.886719 C 27.265625 32.769531 25.019531 34.726562 22.808594 36.722656 C 23.644531 35.292969 24.304688 33.785156 24.789062 32.199219 C 25.378906 30.246094 25.925781 27.945312 25.140625 25.964844 C 24.359375 23.980469 22.238281 23.304688 20.5 24.582031 C 18.625 25.960938 18.398438 28.8125 18.460938 30.957031 C 18.558594 33.703125 19.328125 36.242188 20.773438 38.574219 C 20.214844 39.085938 19.664062 39.597656 19.109375 40.109375 C 18.835938 40.363281 19.316406 41.390625 19.636719 41.09375 C 20.453125 40.339844 21.269531 39.585938 22.089844 38.832031 C 22.113281 38.832031 22.132812 38.828125 22.148438 38.824219 C 25.238281 38.035156 28.027344 39.976562 30.660156 41.300781 C 33.238281 42.589844 36.027344 43.132812 38.792969 42.117188 Z M 38.792969 42.117188"/></g></g></g><g fill="#4A947F"><use x="51.263" y="30.293" xmlns:xlink="http://www.w3.org/1999/xlink" xlink:href="#d" xlink:type="simple" xlink:actuate="onLoad" xlink:show="embed"/></g><g fill="#4A947F"><use x="65.514" y="30.293" xmlns:xlink="http://www.w3.org/1999/xlink" xlink:href="#e" xlink:type="simple" xlink:actuate="onLoad" xlink:show="embed"/></g><g fill="#4A947F"><use x="84.633" y="30.293" xmlns:xlink="http://www.w3.org/1999/xlink" xlink:href="#f" xlink:type="simple" xlink:actuate="onLoad" xlink:show="embed"/></g><g fill="#4A947F"><use x="101.804" y="30.293" xmlns:xlink="http://www.w3.org/1999/xlink" xlink:href="#g" xlink:type="simple" xlink:actuate="onLoad" xlink:show="embed"/></g><g fill="#4A947F"><use x="39.838" y="43.138" xmlns:xlink="http://www.w3.org/1999/xlink" xlink:href="#h" xlink:type="simple" xlink:actuate="onLoad" xlink:show="embed"/></g><g fill="#4A947F"><use x="46.397" y="43.138" xmlns:xlink="http://www.w3.org/1999/xlink" xlink:href="#i" xlink:type="simple" xlink:actuate="onLoad" xlink:show="embed"/></g><g fill="#4A947F"><use x="53.83" y="43.138" xmlns:xlink="http://www.w3.org/1999/xlink" xlink:href="#j" xlink:type="simple" xlink:actuate="onLoad" xlink:show="embed"/></g><g fill="#4A947F"><use x="59.428" y="43.138" xmlns:xlink="http://www.w3.org/1999/xlink" xlink:href="#k" xlink:type="simple" xlink:actuate="onLoad" xlink:show="embed"/></g><g fill="#4A947F"><use x="66.968" y="43.138" xmlns:xlink="http://www.w3.org/1999/xlink" xlink:href="#l" xlink:type="simple" xlink:actuate="onLoad" xlink:show="embed"/></g><g fill="#4A947F"><use x="72.382" y="43.138" xmlns:xlink="http://www.w3.org/1999/xlink" xlink:href="#m" xlink:type="simple" xlink:actuate="onLoad" xlink:show="embed"/></g><g fill="#4A947F"><use x="78.252" y="43.138" xmlns:xlink="http://www.w3.org/1999/xlink" xlink:href="#n" xlink:type="simple" xlink:actuate="onLoad" xlink:show="embed"/></g><g fill="#4A947F"><use x="81.095" y="43.138" xmlns:xlink="http://www.w3.org/1999/xlink" xlink:href="#h" xlink:type="simple" xlink:actuate="onLoad" xlink:show="embed"/></g></svg>