<svg xmlns="http://www.w3.org/2000/svg" xmlns:xlink="http://www.w3.org/1999/xlink" width="375" viewBox="0 0 375 375" height="375" version="1.0"><defs><g id="d"><path d="M 9.6875 7.203125 C 7.976562 7.203125 6.40625 6.742188 4.96875 5.828125 C 3.53125 4.921875 2.8125 3.804688 2.8125 2.484375 C 2.8125 1.546875 3.171875 0 3.890625 -2.15625 C 8.140625 -15.175781 11.5625 -25.328125 14.15625 -32.609375 C 16.75 -39.898438 19.925781 -47.710938 23.6875 -56.046875 C 20.863281 -55.390625 17.960938 -54.285156 14.984375 -52.734375 C 13.660156 -52.078125 12.859375 -51.75 12.578125 -51.75 C 12.085938 -51.75 11.441406 -52.148438 10.640625 -52.953125 C 9.835938 -53.753906 9.4375 -54.429688 9.4375 -54.984375 C 16.832031 -58.066406 23.316406 -59.609375 28.890625 -59.609375 C 32.535156 -59.609375 36.140625 -58.972656 39.703125 -57.703125 C 43.265625 -56.441406 46.203125 -54.582031 48.515625 -52.125 C 50.835938 -49.664062 52 -46.753906 52 -43.390625 C 52 -38.085938 49.875 -34 45.625 -31.125 C 41.375 -28.257812 36.722656 -26.34375 31.671875 -25.375 C 26.617188 -24.40625 22.351562 -23.921875 18.875 -23.921875 L 18.375 -23.921875 L 13.75 -7.28125 C 12.582031 -2.863281 11.226562 1.960938 9.6875 7.203125 Z M 19.125 -26.5 C 23.539062 -26.769531 27.722656 -27.625 31.671875 -29.0625 C 35.617188 -30.5 38.847656 -32.539062 41.359375 -35.1875 C 43.867188 -37.832031 45.125 -41.003906 45.125 -44.703125 C 45.125 -48.515625 43.660156 -51.441406 40.734375 -53.484375 C 37.804688 -55.523438 34.25 -56.601562 30.0625 -56.71875 C 26.75 -50.3125 23.101562 -40.238281 19.125 -26.5 Z M 19.125 -26.5"/></g><g id="e"><path d="M 48.6875 8.203125 C 46.644531 8.203125 44.890625 7.300781 43.421875 5.5 C 41.960938 3.707031 41.234375 1.515625 41.234375 -1.078125 L 41.390625 -5.375 C 36.816406 3.0625 30.941406 7.28125 23.765625 7.28125 C 20.066406 7.28125 17.179688 6.175781 15.109375 3.96875 C 13.035156 1.757812 12 -1.328125 12 -5.296875 C 12 -7.941406 12.382812 -10.78125 13.15625 -13.8125 C 13.9375 -16.851562 15.15625 -20.914062 16.8125 -26 C 18.46875 -31.132812 19.734375 -35.4375 20.609375 -38.90625 C 21.492188 -42.382812 21.9375 -45.644531 21.9375 -48.6875 C 21.9375 -53.65625 20.445312 -56.140625 17.46875 -56.140625 C 15.644531 -56.140625 14.097656 -55.394531 12.828125 -53.90625 C 11.554688 -52.414062 10.601562 -50.644531 9.96875 -48.59375 C 9.34375 -46.550781 9.03125 -44.785156 9.03125 -43.296875 C 9.03125 -41.585938 9.382812 -39.820312 10.09375 -38 C 7.5625 -38 5.703125 -38.578125 4.515625 -39.734375 C 3.328125 -40.898438 2.734375 -42.445312 2.734375 -44.375 C 2.734375 -46.644531 3.476562 -48.960938 4.96875 -51.328125 C 6.457031 -53.703125 8.484375 -55.660156 11.046875 -57.203125 C 13.617188 -58.753906 16.421875 -59.53125 19.453125 -59.53125 C 22.710938 -59.53125 25.128906 -58.59375 26.703125 -56.71875 C 28.273438 -54.84375 29.0625 -52.21875 29.0625 -48.84375 C 29.0625 -46.144531 28.632812 -43.039062 27.78125 -39.53125 C 26.925781 -36.03125 25.695312 -31.738281 24.09375 -26.65625 C 22.4375 -21.363281 21.234375 -17.210938 20.484375 -14.203125 C 19.742188 -11.191406 19.375 -8.523438 19.375 -6.203125 C 19.375 -3.441406 19.925781 -1.25 21.03125 0.375 C 22.132812 2 23.875 2.8125 26.25 2.8125 C 29.0625 2.8125 31.625 1.679688 33.9375 -0.578125 C 36.257812 -2.835938 38.191406 -5.625 39.734375 -8.9375 C 41.285156 -12.25 42.445312 -15.535156 43.21875 -18.796875 C 46.257812 -31.210938 48.9375 -41.101562 51.25 -48.46875 C 53.570312 -55.84375 55.804688 -59.53125 57.953125 -59.53125 C 58.503906 -59.53125 59.265625 -59.238281 60.234375 -58.65625 C 61.203125 -58.082031 62.207031 -57.296875 63.25 -56.296875 C 62.207031 -55.523438 60.398438 -51.800781 57.828125 -45.125 C 55.265625 -38.445312 52.972656 -31.132812 50.953125 -23.1875 C 48.941406 -15.238281 47.9375 -8.722656 47.9375 -3.640625 C 47.9375 -1.328125 48.1875 0.421875 48.6875 1.609375 C 49.1875 2.796875 49.984375 3.625 51.078125 4.09375 C 52.179688 4.5625 53.726562 4.796875 55.71875 4.796875 C 55.113281 5.796875 54.109375 6.613281 52.703125 7.25 C 51.296875 7.882812 49.957031 8.203125 48.6875 8.203125 Z M 48.6875 8.203125"/></g><g id="f"><path d="M 6.546875 1.15625 C 11.398438 -14.351562 16.613281 -31.738281 22.1875 -51 C 22.570312 -52.550781 22.765625 -53.628906 22.765625 -54.234375 C 22.765625 -54.671875 22.695312 -54.972656 22.5625 -55.140625 C 22.425781 -55.304688 22.132812 -55.390625 21.6875 -55.390625 C 20.195312 -55.390625 18.757812 -54.628906 17.375 -53.109375 C 16 -51.597656 14.882812 -49.78125 14.03125 -47.65625 C 13.175781 -45.53125 12.75 -43.640625 12.75 -41.984375 C 12.75 -40.648438 13.023438 -39.351562 13.578125 -38.09375 C 11.253906 -38.09375 9.566406 -38.570312 8.515625 -39.53125 C 7.472656 -40.5 6.953125 -41.8125 6.953125 -43.46875 C 6.953125 -45.84375 7.914062 -48.296875 9.84375 -50.828125 C 11.78125 -53.367188 14.113281 -55.46875 16.84375 -57.125 C 19.582031 -58.78125 22 -59.609375 24.09375 -59.609375 C 26.46875 -59.609375 28.367188 -58.476562 29.796875 -56.21875 C 31.234375 -53.957031 32.320312 -51.113281 33.0625 -47.6875 C 33.8125 -44.269531 34.628906 -39.609375 35.515625 -33.703125 C 36.515625 -26.691406 37.257812 -21.597656 37.75 -18.421875 C 38.25 -15.242188 38.773438 -12.25 39.328125 -9.4375 L 42.46875 -22.609375 C 44.625 -31.929688 46.390625 -39.144531 47.765625 -44.25 C 49.148438 -49.351562 50.503906 -53.039062 51.828125 -55.3125 C 53.484375 -58.238281 55.71875 -59.703125 58.53125 -59.703125 C 56.550781 -54.566406 54.265625 -47.441406 51.671875 -38.328125 C 49.078125 -29.222656 46.867188 -20.378906 45.046875 -11.796875 C 43.222656 -3.210938 42.3125 3.117188 42.3125 7.203125 C 40.15625 7.203125 38.441406 6.691406 37.171875 5.671875 C 35.898438 4.648438 34.960938 2.785156 34.359375 0.078125 C 33.691406 -2.734375 31.398438 -14.984375 27.484375 -36.671875 C 27.046875 -39.109375 26.6875 -41.070312 26.40625 -42.5625 C 26.132812 -44.050781 25.941406 -45.179688 25.828125 -45.953125 C 21.242188 -29.285156 17.90625 -17.539062 15.8125 -10.71875 C 13.71875 -3.90625 11.867188 0.78125 10.265625 3.34375 C 8.660156 5.914062 6.785156 7.203125 4.640625 7.203125 Z M 6.546875 1.15625"/></g><g id="h"><path d="M 19.484375 -4.003906 C 17.402344 -1.609375 14.882812 -0.441406 11.917969 -0.441406 C 10.59375 -0.441406 9.394531 -0.820312 8.386719 -1.609375 C 7.316406 -2.394531 6.527344 -3.4375 5.957031 -4.699219 C 5.390625 -6.023438 5.140625 -7.914062 5.140625 -10.371094 C 5.140625 -12.832031 5.390625 -14.722656 5.957031 -16.015625 C 6.527344 -17.277344 7.316406 -18.316406 8.386719 -19.136719 C 9.394531 -19.894531 10.59375 -20.304688 11.917969 -20.304688 C 14.753906 -20.304688 17.152344 -19.230469 19.136719 -17.152344 L 19.546875 -17.625 C 17.464844 -19.832031 14.914062 -20.933594 11.917969 -20.933594 C 9.078125 -20.996094 6.621094 -19.957031 4.507812 -17.84375 C 2.363281 -15.699219 1.355469 -13.210938 1.417969 -10.371094 C 1.355469 -7.503906 2.363281 -5.011719 4.507812 -2.902344 C 6.621094 -0.757812 9.078125 0.253906 11.917969 0.1875 C 13.460938 0.1875 14.945312 -0.125 16.332031 -0.789062 C 17.71875 -1.417969 18.886719 -2.332031 19.894531 -3.53125 Z M 19.484375 -4.003906"/></g><g id="i"><path d="M 22.574219 -10.371094 C 22.636719 -13.179688 21.597656 -15.667969 19.453125 -17.8125 C 17.308594 -19.957031 14.851562 -20.996094 12.074219 -20.933594 C 9.238281 -20.996094 6.777344 -19.957031 4.667969 -17.84375 C 2.523438 -15.699219 1.511719 -13.210938 1.578125 -10.371094 C 1.511719 -7.503906 2.523438 -5.011719 4.667969 -2.902344 C 6.777344 -0.757812 9.238281 0.253906 12.074219 0.1875 C 14.851562 0.253906 17.308594 -0.789062 19.453125 -2.933594 C 21.597656 -5.074219 22.636719 -7.535156 22.574219 -10.371094 Z M 18.855469 -10.371094 C 18.855469 -7.851562 18.570312 -5.957031 18.003906 -4.699219 C 17.402344 -3.40625 16.617188 -2.363281 15.605469 -1.609375 C 14.566406 -0.820312 13.398438 -0.441406 12.074219 -0.441406 C 10.6875 -0.441406 9.519531 -0.820312 8.542969 -1.609375 C 7.472656 -2.394531 6.683594 -3.4375 6.117188 -4.699219 C 5.550781 -6.023438 5.296875 -7.914062 5.296875 -10.371094 C 5.296875 -12.832031 5.550781 -14.722656 6.117188 -16.015625 C 6.683594 -17.277344 7.472656 -18.316406 8.542969 -19.136719 C 9.519531 -19.894531 10.6875 -20.273438 12.074219 -20.273438 C 13.398438 -20.273438 14.597656 -19.894531 15.605469 -19.136719 C 16.617188 -18.347656 17.433594 -17.308594 18.003906 -16.015625 C 18.570312 -14.753906 18.855469 -12.863281 18.855469 -10.371094 Z M 18.855469 -10.371094"/></g><g id="j"><path d="M 16.332031 -5.894531 C 16.332031 -7.15625 15.859375 -8.261719 14.914062 -9.175781 C 13.96875 -10.089844 12.453125 -11.035156 10.339844 -12.011719 L 9.394531 -12.453125 C 8.261719 -12.957031 7.28125 -13.429688 6.398438 -13.902344 C 5.769531 -14.21875 5.234375 -14.628906 4.824219 -15.132812 C 4.445312 -15.574219 4.257812 -16.140625 4.257812 -16.835938 C 4.257812 -17.9375 4.667969 -18.789062 5.484375 -19.390625 C 6.304688 -19.988281 7.472656 -20.304688 8.984375 -20.304688 C 10.246094 -20.304688 11.476562 -19.988281 12.675781 -19.359375 C 13.839844 -18.757812 14.691406 -17.90625 15.257812 -16.804688 L 15.667969 -17.308594 C 15.132812 -18.378906 14.21875 -19.261719 12.957031 -19.957031 C 11.695312 -20.585938 10.371094 -20.933594 8.921875 -20.933594 C 6.9375 -20.933594 5.265625 -20.398438 3.910156 -19.359375 C 2.554688 -18.316406 1.890625 -16.898438 1.890625 -15.132812 C 1.953125 -13.683594 2.425781 -12.546875 3.308594 -11.792969 C 4.191406 -11.035156 5.863281 -10.121094 8.355469 -9.078125 C 10.183594 -8.292969 11.539062 -7.535156 12.359375 -6.777344 C 13.179688 -6.023438 13.621094 -5.203125 13.621094 -4.289062 C 13.621094 -3.089844 13.210938 -2.144531 12.390625 -1.449219 C 11.570312 -0.757812 10.4375 -0.441406 8.984375 -0.441406 C 7.660156 -0.441406 6.335938 -0.726562 5.074219 -1.292969 C 3.75 -1.890625 2.835938 -2.742188 2.300781 -3.816406 L 1.921875 -3.308594 C 2.523438 -2.144531 3.5 -1.261719 4.855469 -0.695312 C 6.179688 -0.09375 7.535156 0.1875 8.984375 0.1875 C 11.160156 0.1875 12.925781 -0.378906 14.28125 -1.542969 C 15.636719 -2.679688 16.332031 -4.128906 16.332031 -5.894531 Z M 16.332031 -5.894531"/></g><g id="k"><path d="M 12.515625 -7.03125 L 6.464844 -20.746094 L 2.585938 -20.746094 L 2.585938 0 L 3.214844 0 L 3.214844 -19.328125 L 10.941406 -1.765625 L 18.378906 -19.136719 L 18.378906 0 L 21.945312 0 L 21.945312 -20.746094 L 18.378906 -20.746094 Z M 12.515625 -7.03125"/></g><g id="l"><path d="M 15.699219 -20.746094 L 2.585938 -20.746094 L 2.585938 0 L 15.699219 0 L 15.699219 -0.628906 L 6.148438 -0.628906 L 6.148438 -10.058594 L 13.335938 -10.058594 L 13.335938 -10.6875 L 6.148438 -10.6875 L 6.148438 -20.113281 L 15.699219 -20.113281 Z M 15.699219 -20.746094"/></g><g id="m"><path d="M 1.542969 -20.746094 L 1.542969 -20.113281 L 7.757812 -20.113281 L 7.757812 0 L 11.320312 0 L 11.320312 -20.113281 L 17.53125 -20.113281 L 17.53125 -20.746094 Z M 1.542969 -20.746094"/></g><g id="n"><path d="M 2.835938 0 L 6.398438 0 L 6.398438 -20.746094 L 2.835938 -20.746094 Z M 2.835938 0"/></g><clipPath id="a"><path d="M 110 125 L 265 125 L 265 254 L 110 254 Z M 110 125"/></clipPath><clipPath id="b"><path d="M 252.890625 107.03125 L 284.664062 219.636719 L 122.253906 265.460938 L 90.484375 152.855469 Z M 252.890625 107.03125"/></clipPath><clipPath id="c"><path d="M 252.976562 107.007812 L 284.746094 219.613281 L 122.335938 265.4375 L 90.566406 152.832031 Z M 252.976562 107.007812"/></clipPath></defs><path fill="#FFF" d="M-37.5 -37.5H412.5V412.5H-37.5z"/><path fill="#FFF" d="M-37.5 -37.5H412.5V412.5H-37.5z"/><path fill="#4A947F" d="M-37.5 -37.5H412.5V412.5H-37.5z"/><g clip-path="url(#a)"><g clip-path="url(#b)"><g clip-path="url(#c)"><path fill="#4D5453" d="M 183.472656 245.644531 C 188.765625 242.601562 193.382812 235.863281 187.429688 230.804688 C 184.828125 228.589844 181.210938 227.964844 177.917969 227.769531 C 173.273438 227.507812 168.636719 227.601562 164.007812 228.054688 C 153.777344 229.058594 143.980469 231.683594 134.617188 235.921875 C 143.78125 224.441406 153.320312 213.207031 163.566406 202.695312 C 163.597656 202.6875 163.628906 202.679688 163.660156 202.671875 C 171.992188 200.609375 180.195312 203.351562 188.324219 205.082031 C 196.457031 206.816406 205.0625 207.0625 212.898438 203.6875 C 215.664062 202.507812 217.917969 200.320312 217.074219 197.066406 C 216.179688 193.65625 213.078125 191.855469 209.808594 191.292969 C 202.472656 190.03125 194.71875 190.933594 187.457031 192.257812 C 181.347656 193.390625 175.335938 194.914062 169.425781 196.824219 C 175.910156 190.472656 182.71875 184.492188 189.859375 178.890625 C 205.160156 169.039062 224.449219 173.589844 241.511719 171.136719 C 248.882812 170.082031 258.199219 167.707031 262.695312 161.199219 C 266.515625 155.671875 264.203125 146.8125 257.1875 145.378906 C 248.445312 143.59375 238.332031 147.414062 230.367188 150.644531 C 221.582031 154.234375 213.164062 158.550781 205.121094 163.589844 C 199.203125 167.296875 193.503906 171.3125 188.015625 175.632812 C 187.980469 175.644531 187.9375 175.679688 187.902344 175.710938 C 187.851562 175.738281 187.808594 175.78125 187.773438 175.832031 C 186.75 176.621094 185.75 177.421875 184.757812 178.238281 C 188.484375 170.980469 192.601562 163.949219 197.105469 157.152344 C 199.960938 152.839844 203.332031 148.796875 205.972656 144.355469 C 208.195312 140.613281 209.457031 136.15625 207.953125 131.890625 C 204.929688 123.308594 194.589844 123.5625 188.792969 128.921875 C 182.054688 135.167969 178.160156 145.28125 176.289062 154.105469 C 175.242188 159.121094 174.820312 164.191406 175.023438 169.3125 C 175.230469 174.4375 176.054688 179.460938 177.503906 184.378906 C 171.953125 189.269531 166.613281 194.402344 161.464844 199.695312 C 159.035156 202.195312 156.648438 204.730469 154.300781 207.300781 C 155.835938 202.871094 157.035156 198.355469 157.894531 193.746094 C 159.214844 186.617188 160.316406 178.375 157.46875 171.449219 C 155.496094 166.65625 150.164062 161.117188 144.769531 164.9375 C 138.753906 169.191406 140.46875 179.125 141.25 185.316406 C 142.5 195.289062 145.289062 204.996094 147.597656 214.765625 C 141.21875 222.082031 135.074219 229.605469 129.0625 237.238281 C 130.96875 232.191406 132.261719 226.992188 132.941406 221.636719 C 133.761719 215.039062 134.242188 207.351562 130.628906 201.433594 C 127.019531 195.515625 119.8125 194.523438 114.9375 199.582031 C 109.664062 205.050781 110.507812 214.320312 111.894531 221.167969 C 112.796875 225.46875 114.234375 229.582031 116.207031 233.503906 C 118.183594 237.429688 120.625 241.03125 123.539062 244.316406 C 122.035156 246.265625 120.539062 248.214844 119.042969 250.164062 C 118.296875 251.128906 120.410156 254.15625 121.285156 253.019531 C 123.488281 250.148438 125.699219 247.277344 127.925781 244.40625 C 127.992188 244.390625 128.050781 244.375 128.113281 244.351562 C 137.605469 240.101562 147.648438 244.773438 156.863281 247.554688 C 165.867188 250.253906 175.136719 250.441406 183.472656 245.644531 Z M 183.472656 245.644531"/></g></g></g><g fill="#FFF"><use x="101.272" y="186.906" xmlns:xlink="http://www.w3.org/1999/xlink" xlink:href="#d" xlink:type="simple" xlink:actuate="onLoad" xlink:show="embed"/></g><g fill="#FFF"><use x="147.553" y="186.906" xmlns:xlink="http://www.w3.org/1999/xlink" xlink:href="#e" xlink:type="simple" xlink:actuate="onLoad" xlink:show="embed"/></g><g fill="#FFF"><use x="209.648" y="186.906" xmlns:xlink="http://www.w3.org/1999/xlink" xlink:href="#f" xlink:type="simple" xlink:actuate="onLoad" xlink:show="embed"/></g><g fill="#FFF"><use x="265.44" y="186.906" xmlns:xlink="http://www.w3.org/1999/xlink" xlink:href="#g" xlink:type="simple" xlink:actuate="onLoad" xlink:show="embed"/></g><g fill="#FFF"><use x="128.643" y="235.97" xmlns:xlink="http://www.w3.org/1999/xlink" xlink:href="#h" xlink:type="simple" xlink:actuate="onLoad" xlink:show="embed"/></g><g fill="#FFF"><use x="149.955" y="235.97" xmlns:xlink="http://www.w3.org/1999/xlink" xlink:href="#i" xlink:type="simple" xlink:actuate="onLoad" xlink:show="embed"/></g><g fill="#FFF"><use x="174.103" y="235.97" xmlns:xlink="http://www.w3.org/1999/xlink" xlink:href="#j" xlink:type="simple" xlink:actuate="onLoad" xlink:show="embed"/></g><g fill="#FFF"><use x="192.293" y="235.97" xmlns:xlink="http://www.w3.org/1999/xlink" xlink:href="#k" xlink:type="simple" xlink:actuate="onLoad" xlink:show="embed"/></g><g fill="#FFF"><use x="216.789" y="235.97" xmlns:xlink="http://www.w3.org/1999/xlink" xlink:href="#l" xlink:type="simple" xlink:actuate="onLoad" xlink:show="embed"/></g><g fill="#FFF"><use x="234.38" y="235.97" xmlns:xlink="http://www.w3.org/1999/xlink" xlink:href="#m" xlink:type="simple" xlink:actuate="onLoad" xlink:show="embed"/></g><g fill="#FFF"><use x="253.453" y="235.97" xmlns:xlink="http://www.w3.org/1999/xlink" xlink:href="#n" xlink:type="simple" xlink:actuate="onLoad" xlink:show="embed"/></g><g fill="#FFF"><use x="262.69" y="235.97" xmlns:xlink="http://www.w3.org/1999/xlink" xlink:href="#h" xlink:type="simple" xlink:actuate="onLoad" xlink:show="embed"/></g></svg>